<svg id="about" viewBox="0 0 34 34" fill="none" xmlns="http://www.w3.org/2000/svg">
<path fill-rule="evenodd" clip-rule="evenodd" d="M17 0C7.61119 0 0 7.61109 0 17C0 26.3888 7.61119 34 17 34C26.3889 34 34 26.3888 34 17C34 7.61109 26.3889 0 17 0ZM17 30.6C9.50098 30.6 3.4 24.499 3.4 17C3.4 9.50098 9.50098 3.4 17 3.4C24.4991 3.4 30.6 9.50098 30.6 17C30.6 24.499 24.4991 30.6 17 30.6ZM19.1287 10.2C19.1287 11.4326 18.2313 12.325 17.0173 12.325C15.7541 12.325 14.8787 11.4326 14.8787 10.1764C14.8787 8.96912 15.7778 8.075 17.0173 8.075C18.2313 8.075 19.1287 8.96912 19.1287 10.2ZM15.3037 15.3H18.7037V25.5H15.3037V15.3Z" fill="#DD0086"/>
</svg>
