<svg id="academics" viewBox="0 0 40 40" fill="none" xmlns="http://www.w3.org/2000/svg">
<g clip-path="url(#clip0_94_480)">
<path d="M29.455 9.34339C26.303 7.8608 23.1525 6.37524 20.0033 4.88672L0.22998 14.2067L3.61331 15.8401L3.33331 15.8851V33.3334H4.99998V17.2901L6.19998 17.0834L6.66665 17.3084V26.1217C6.66665 27.6451 15.3433 32.0101 17.0816 32.8701C17.9854 33.3136 18.98 33.5407 19.9868 33.5332C20.9935 33.5256 21.9846 33.2838 22.8816 32.8267C33.3333 27.4767 33.3333 26.4917 33.3333 26.1217V17.3084L39.7566 14.2134C39.7566 14.2134 33.4233 11.2117 29.455 9.34339ZM31.6666 25.8401C28.6066 27.8769 25.4189 29.7151 22.1233 31.3434C21.4579 31.683 20.7226 31.8628 19.9756 31.8686C19.2286 31.8743 18.4905 31.7059 17.82 31.3767C14.5125 29.8031 11.3396 27.9608 8.33331 25.8684V18.1101L20 23.7317L31.6666 18.1101V25.8401ZM20 21.8851L9.02665 16.5967L19.8083 14.7384L19.525 13.0934L6.44165 15.3501L4.10331 14.2234L19.9983 6.73172C21.3733 7.38672 34.2033 13.4217 35.9016 14.2217L20 21.8851Z" fill="#DD0086"/>
</g>
<defs>
<clipPath id="clip0_94_480">
<rect width="40" height="40" fill="white"/>
</clipPath>
</defs>
</svg>
