<svg id="affordable" viewBox="0 0 150 150" fill="none" xmlns="http://www.w3.org/2000/svg">
<path d="M75.1482 57.6352C84.0463 57.6352 91.2217 50.4592 91.2217 41.5617C91.2217 32.6643 84.1031 25.4883 75.1482 25.4883C66.2502 25.4883 59.0748 32.6643 59.0748 41.5617C59.1316 50.5172 66.3076 57.6352 75.1482 57.6352ZM37.8346 104.191H8.95957C-0.397266 104.191 -0.914063 89.8975 9.13184 89.8975H34.1602L48.5115 68.7721C52.7596 62.9742 57.5818 60.2186 64.4127 60.2186H85.8252C92.6566 60.2186 97.4783 62.7445 101.726 68.7721L116.135 89.8975H141.336C151.44 89.8975 150.808 104.191 141.681 104.191H112.806C110.51 104.191 107.754 103.387 106.147 100.92L95.1246 85.1906L95.0672 124.571H55.5727L55.5152 85.1906L44.4932 100.92C42.8859 103.33 40.1309 104.191 37.8346 104.191Z" fill="#04622C"/>
<path d="M18.1389 80.2987C27.5033 80.2987 35.1562 72.6961 35.1562 63.2813C35.1562 53.8665 27.5537 46.2639 18.1389 46.2639C8.72402 46.2639 1.17188 53.9168 1.17188 63.3317C1.17188 72.6961 8.77441 80.2987 18.1389 80.2987ZM17.199 64.7245C14.0777 63.6334 12.1307 62.0561 12.1307 59.2536C12.1307 56.669 13.8422 54.6381 16.9811 54.0006V51.1981H19.3307V53.8665C21.2771 53.8665 22.6869 54.269 23.7275 54.8233L22.7707 58.1795C21.9984 57.8608 20.7398 57.3235 19.0113 57.3235C17.2828 57.3235 16.343 58.1795 16.343 59.035C16.343 60.2098 17.434 60.6627 19.7836 61.6196C22.9893 62.7944 24.4828 64.4221 24.4828 67.0905C24.4828 69.7588 22.8551 71.7897 19.4145 72.5614V75.2297H17.0648V72.6452C15.034 72.6452 12.9867 72.1079 11.9965 71.5542L12.8525 68.1135C13.9436 68.6508 15.6551 69.2883 17.468 69.2883C19.4145 69.2883 20.3713 68.4323 20.3713 67.2575C20.3713 66.0827 19.4479 65.5975 17.199 64.7245Z" fill="#04622C"/>
<path d="M142.515 52.9897L144.011 50.6167L140.471 48.3854L139.001 50.7169C137.31 49.8913 135.466 49.3312 133.526 49.0903V46.8644H136.101V42.6802H126.928V46.8644H129.342V49.0745C120.663 50.0812 113.904 57.4745 113.904 66.4183C113.904 76.047 121.738 83.8804 131.367 83.8804C140.995 83.8804 148.828 76.0481 148.828 66.4194C148.828 61.0253 146.37 56.1954 142.515 52.9897ZM131.366 79.7003C124.043 79.7003 118.085 73.7425 118.085 66.4194C118.085 59.0964 124.043 53.1386 131.366 53.1386C138.689 53.1386 144.647 59.0964 144.647 66.4194C144.647 73.7425 138.689 79.7003 131.366 79.7003ZM142.216 66.3392H131.433V55.5562C137.377 55.5843 142.153 60.4042 142.216 66.3392Z" fill="#04622C"/>
</svg>
