<svg id="excellence" viewBox="0 0 200 200" fill="none" xmlns="http://www.w3.org/2000/svg">
<path d="M100 185.352C146.513 185.352 184.219 147.646 184.219 101.133C184.219 54.6201 146.513 16.9141 100 16.9141C53.4873 16.9141 15.7812 54.6201 15.7812 101.133C15.7812 147.646 53.4873 185.352 100 185.352Z" fill="#619C7A" fill-opacity="0.12"/>
<path d="M144.766 104.336L144.258 104.453L144.609 104.805C152.266 112.227 144.922 124.922 134.687 121.992L134.18 121.836L134.297 122.305C135.156 125.391 134.648 128.203 133.281 130.391L147.969 161.758C148.125 162.109 147.773 162.5 147.383 162.344L132.422 156.172C132.188 156.055 131.914 156.211 131.836 156.445L127.031 171.875C126.914 172.266 126.367 172.305 126.211 171.914L110.898 139.219C108.242 140.391 105.117 140.391 102.461 139.219L87.1484 171.914C86.9922 172.266 86.4453 172.227 86.3281 171.875L81.5234 156.445C81.4453 156.211 81.1719 156.055 80.9375 156.172L66.0156 162.344C65.625 162.5 65.2734 162.109 65.4297 161.758L80.1172 130.391C78.75 128.164 78.2031 125.352 79.1016 122.305L79.2578 121.836L78.75 121.992C68.5156 124.922 61.1719 112.227 68.8281 104.805L69.2188 104.453L68.7109 104.336C58.3984 101.758 58.3984 87.0703 68.7109 84.4922L69.2188 84.375L68.8281 84.0234C61.1719 76.6406 68.5156 63.9063 78.75 66.8359L79.2578 66.9922L79.1016 66.4844C76.1719 56.25 88.9063 48.9063 96.2891 56.5625L96.6406 56.9141L96.7578 56.4062C99.3359 46.0937 114.023 46.0937 116.602 56.4062L116.719 56.9141L117.07 56.5625C124.492 48.9063 137.188 56.25 134.258 66.4844L134.141 66.9922L134.648 66.8359C142.734 64.5313 148.984 71.9531 147.539 78.8281C147.148 80.6641 146.211 82.4609 144.57 84.0234L144.219 84.375L144.727 84.4922C155.117 87.0703 155.117 101.758 144.766 104.336Z" fill="#D3D5E7"/>
<path d="M95.7812 135.547L80.4688 168.281C80.3125 168.633 79.7656 168.594 79.6484 168.242L74.8438 152.813C74.7656 152.578 74.4922 152.422 74.2578 152.539L59.3359 158.711C58.9453 158.867 58.5937 158.477 58.75 158.125L73.4375 126.758C74.7656 128.945 76.9531 130.586 79.375 131.328C82.7344 132.344 86.6016 131.719 89.6094 128.633L89.9609 128.281L90.0781 128.789C90.9375 132.109 93.125 134.414 95.7812 135.547Z" fill="#DA867D" stroke="#DD0086" stroke-width="9.375" stroke-miterlimit="10" stroke-linecap="round"/>
<path d="M140.703 158.672L125.781 152.5C125.547 152.383 125.273 152.539 125.195 152.773L120.391 168.203C120.273 168.594 119.727 168.633 119.57 168.242L104.258 135.547C106.445 134.609 108.32 132.891 109.375 130.391C109.609 129.844 109.805 129.258 109.961 128.672L110.078 128.164L110.43 128.516C113.438 131.602 117.305 132.266 120.664 131.211C123.086 130.469 125.273 128.867 126.602 126.641L141.289 158.008C141.445 158.437 141.094 158.828 140.703 158.672Z" fill="#DA867D" stroke="#DD0086" stroke-width="9.375" stroke-miterlimit="10" stroke-linecap="round"/>
<path d="M138.008 100.625L137.5 100.742L137.852 101.094C145.508 108.516 138.164 121.211 127.93 118.281L127.422 118.125L127.578 118.594C128.438 121.68 127.93 124.453 126.562 126.68C125.234 128.867 123.047 130.508 120.625 131.25C117.266 132.266 113.398 131.641 110.391 128.555L110.039 128.203L109.922 128.711C109.766 129.336 109.57 129.883 109.336 130.43C108.281 132.93 106.406 134.648 104.219 135.586C101.562 136.758 98.4375 136.758 95.7812 135.586C93.125 134.453 90.9375 132.148 90.0781 128.711L89.9609 128.203L89.6094 128.555C86.6016 131.641 82.7344 132.305 79.375 131.25C76.9531 130.508 74.7656 128.906 73.4375 126.68C72.0703 124.453 71.5234 121.641 72.4219 118.594L72.5781 118.125L72.0703 118.281C61.8359 121.211 54.4922 108.516 62.1484 101.094L62.5 100.742L61.9922 100.625C51.6797 98.0469 51.6797 83.3594 61.9922 80.7813L62.5 80.6641L62.1484 80.3125C54.4922 72.9297 61.8359 60.1953 72.0703 63.125L72.5781 63.2813L72.4219 62.7734C69.4922 52.5391 82.1875 45.1953 89.6094 52.8516L89.9609 53.2031L90.0781 52.6953C92.6563 42.3438 107.344 42.3438 109.922 52.6953L110.039 53.2031L110.391 52.8516C117.813 45.1953 130.508 52.5391 127.578 62.7734L127.422 63.2813L127.93 63.125C136.016 60.8203 142.266 68.2422 140.82 75.1172C140.43 76.9531 139.492 78.75 137.852 80.3125L137.5 80.6641L138.008 80.7813C148.32 83.3594 148.32 98.0469 138.008 100.625Z" fill="white" stroke="#DD0086" stroke-width="9.375" stroke-miterlimit="10" stroke-linecap="round" stroke-linejoin="round"/>
<path d="M113.555 110.117L100.82 103.594C100.43 103.398 100 103.398 99.6094 103.594L87.0313 110.391C86.7969 110.508 86.4844 110.313 86.5234 110.039L88.7891 95.9375C88.8672 95.5079 88.7109 95.0782 88.3984 94.8047L78.0469 84.9219C77.8516 84.7266 77.9688 84.375 78.2422 84.336L92.3828 82.1094C92.8125 82.0313 93.1641 81.7579 93.3594 81.4063L99.5313 68.5157C99.6484 68.2813 100 68.2422 100.156 68.5157L106.641 81.25C106.836 81.6407 107.188 81.875 107.617 81.9532L121.797 83.8672C122.07 83.9063 122.188 84.2579 121.992 84.4532L111.797 94.5313C111.484 94.8438 111.367 95.2735 111.445 95.6641L114.023 109.727C114.063 110.039 113.789 110.234 113.555 110.117Z" fill="#F0C330" stroke="#DD0086" stroke-width="9.375" stroke-miterlimit="10" stroke-linecap="round"/>
<path d="M79.375 70.1562L82.5 72.5781" stroke="#DD0086" stroke-width="3.90625" stroke-miterlimit="10" stroke-linecap="round"/>
<path d="M79.375 67.1484L85.6641 71.9531" stroke="#DD0086" stroke-width="3.90625" stroke-miterlimit="10" stroke-linecap="round"/>
<path d="M83.9063 67.5781L85.6641 68.9062" stroke="#DD0086" stroke-width="3.90625" stroke-miterlimit="10" stroke-linecap="round"/>
<path d="M135.156 106.953C135.469 109.297 134.336 111.68 132.422 113.008" stroke="#DD0086" stroke-width="4.6875" stroke-miterlimit="10" stroke-linecap="round" stroke-linejoin="round"/>
<path d="M131.562 68.8281C133.32 69.8438 134.492 71.8359 134.492 73.8672" stroke="#DD0086" stroke-width="4.6875" stroke-miterlimit="10" stroke-linecap="round" stroke-linejoin="round"/>
<path d="M165.938 128.555C156.172 128.047 156.445 117.227 156.445 117.227C156.172 129.141 146.406 128.555 146.406 128.555C146.406 128.555 156.445 129.531 156.445 139.609C156.445 139.609 157.695 129.531 165.938 128.555Z" fill="white"/>
<path d="M171.445 116.25C167.07 116.016 167.188 111.172 167.188 111.172C167.07 116.523 162.695 116.25 162.695 116.25C162.695 116.25 167.188 116.68 167.188 121.211C167.188 121.211 167.773 116.68 171.445 116.25Z" fill="white"/>
<path d="M160.039 106.758C157.266 106.602 157.344 103.555 157.344 103.555C157.266 106.914 154.492 106.758 154.492 106.758C154.492 106.758 157.344 107.031 157.344 109.883C157.344 109.883 157.695 107.031 160.039 106.758Z" fill="white"/>
<path d="M52.0312 78.75C49.2578 78.5938 49.3359 75.5469 49.3359 75.5469C49.2578 78.9063 46.4844 78.75 46.4844 78.75C46.4844 78.75 49.3359 79.0234 49.3359 81.875C49.375 81.875 49.7266 79.0234 52.0312 78.75Z" fill="white"/>
<path d="M63.0469 59.375C58.6719 59.1406 58.7891 54.2969 58.7891 54.2969C58.6719 59.6484 54.2969 59.375 54.2969 59.375C54.2969 59.375 58.7891 59.8047 58.7891 64.3359C58.7891 64.3359 59.375 59.8047 63.0469 59.375Z" fill="white"/>
<path d="M50.8594 64.4922C42.1094 64.0234 42.3438 54.3359 42.3438 54.3359C42.1094 65 33.3594 64.4922 33.3594 64.4922C33.3594 64.4922 42.3438 65.3516 42.3438 74.4141C42.3438 74.375 43.4375 65.3125 50.8594 64.4922Z" fill="white"/>
</svg>
