<svg id="gallery" viewBox="0 0 40 40" fill="none" xmlns="http://www.w3.org/2000/svg">
<path d="M15 36.6667H25C33.3334 36.6667 36.6667 33.3334 36.6667 25V15C36.6667 6.66671 33.3334 3.33337 25 3.33337H15C6.66671 3.33337 3.33337 6.66671 3.33337 15V25C3.33337 33.3334 6.66671 36.6667 15 36.6667Z" stroke="#DD0086" stroke-width="3" stroke-linecap="round" stroke-linejoin="round"/>
<path d="M15 16.6667C16.841 16.6667 18.3333 15.1743 18.3333 13.3333C18.3333 11.4924 16.841 10 15 10C13.159 10 11.6666 11.4924 11.6666 13.3333C11.6666 15.1743 13.159 16.6667 15 16.6667Z" stroke="#DD0086" stroke-width="3" stroke-linecap="round" stroke-linejoin="round"/>
<path d="M4.45007 31.5835L12.6667 26.0668C13.9834 25.1835 15.8834 25.2835 17.0667 26.3001L17.6167 26.7835C18.9167 27.9001 21.0167 27.9001 22.3167 26.7835L29.25 20.8335C30.55 19.7168 32.65 19.7168 33.95 20.8335L36.6667 23.1668" stroke="#DD0086" stroke-width="3" stroke-linecap="round" stroke-linejoin="round"/>
</svg>
