<svg id="location" viewBox="0 0 6 6" fill="none" xmlns="http://www.w3.org/2000/svg">
<g clip-path="url(#clip0_108_1090)">
<path d="M5.0969 2.31325C5.0969 3.73496 3.26899 4.95356 3.26899 4.95356C3.26899 4.95356 1.44109 3.73496 1.44109 2.31325C1.44109 1.82846 1.63367 1.36353 1.97647 1.02073C2.31927 0.677934 2.7842 0.485352 3.26899 0.485352C3.75378 0.485352 4.21872 0.677934 4.56152 1.02073C4.90431 1.36353 5.0969 1.82846 5.0969 2.31325Z" stroke="#DD0086" stroke-width="0.28673" stroke-linecap="round" stroke-linejoin="round"/>
<path d="M3.269 2.92222C3.60551 2.92222 3.8783 2.64942 3.8783 2.31291C3.8783 1.97641 3.60551 1.70361 3.269 1.70361C2.9325 1.70361 2.6597 1.97641 2.6597 2.31291C2.6597 2.64942 2.9325 2.92222 3.269 2.92222Z" stroke="#DD0086" stroke-width="0.28673" stroke-linecap="round" stroke-linejoin="round"/>
</g>
<defs>
<clipPath id="clip0_108_1090">
<rect width="4.87441" height="4.87441" fill="white" transform="translate(0.831772 0.281982)"/>
</clipPath>
</defs>
</svg>
