<svg id="people" viewBox="0 0 200 200" fill="none" xmlns="http://www.w3.org/2000/svg">
<path d="M146.076 64.7501C145.493 64.6667 144.909 64.6667 144.326 64.7501C131.409 64.3334 121.159 53.7501 121.159 40.7501C121.159 27.5001 131.909 16.6667 145.243 16.6667C158.493 16.6667 169.326 27.4167 169.326 40.7501C169.243 53.7501 158.993 64.3334 146.076 64.7501Z" fill="#292D32"/>
<path d="M173.263 122.503C163.93 128.753 150.847 131.087 138.763 129.503C141.93 122.67 143.597 115.087 143.68 107.087C143.68 98.7534 141.847 90.8367 138.347 83.92C150.68 82.2534 163.763 84.5867 173.18 90.8367C186.347 99.5034 186.347 113.753 173.263 122.503Z" fill="#292D32"/>
<path d="M53.668 64.7501C54.2513 64.6667 54.8347 64.6667 55.418 64.7501C68.3347 64.3334 78.5847 53.7501 78.5847 40.7501C78.5847 27.4167 67.8347 16.6667 54.5013 16.6667C41.2513 16.6667 30.5013 27.4167 30.5013 40.7501C30.5013 53.7501 40.7513 64.3334 53.668 64.7501Z" fill="#292D32"/>
<path d="M54.5924 107.088C54.5924 115.172 56.3424 122.838 59.509 129.755C47.759 131.005 35.509 128.505 26.509 122.588C13.3424 113.838 13.3424 99.5883 26.509 90.8383C35.4257 84.8383 48.009 82.4215 59.8424 83.755C56.4257 90.755 54.5924 98.6716 54.5924 107.088Z" fill="#292D32"/>
<path d="M101.007 132.25C100.34 132.167 99.59 132.167 98.84 132.25C83.5066 131.75 71.2565 119.167 71.2565 103.667C71.3398 87.8333 84.09 75 100.007 75C115.84 75 128.673 87.8333 128.673 103.667C128.59 119.167 116.423 131.75 101.007 132.25Z" fill="#292D32"/>
<path d="M73.9232 149.505C61.3399 157.922 61.3399 171.755 73.9232 180.088C88.2567 189.672 111.757 189.672 126.09 180.088C138.673 171.672 138.673 157.838 126.09 149.505C111.84 139.922 88.34 139.922 73.9232 149.505Z" fill="#292D32"/>
</svg>
