<svg id="call" viewBox="0 0 6 5" fill="none" xmlns="http://www.w3.org/2000/svg">
<g clip-path="url(#clip0_108_1096)">
<path d="M3.88845 1.01675C4.08682 1.05545 4.26914 1.15247 4.41205 1.29539C4.55497 1.4383 4.65199 1.62062 4.69069 1.81899M3.88845 0.204346C4.30059 0.250132 4.68492 0.434697 4.97833 0.727737C5.27174 1.02078 5.45679 1.40487 5.50309 1.81696M5.29999 3.4377V4.047C5.30022 4.10357 5.28864 4.15956 5.26598 4.21138C5.24332 4.26321 5.21008 4.30973 5.1684 4.34797C5.12672 4.38621 5.07751 4.41532 5.02393 4.43344C4.97035 4.45157 4.91357 4.4583 4.85724 4.4532C4.23226 4.3853 3.63193 4.17174 3.10448 3.82969C2.61375 3.51786 2.19771 3.10181 1.88588 2.61108C1.54263 2.08124 1.32903 1.47799 1.26236 0.850205C1.25728 0.794041 1.26396 0.737435 1.28196 0.683992C1.29996 0.630549 1.32889 0.58144 1.36691 0.53979C1.40493 0.498141 1.4512 0.464864 1.50279 0.442079C1.55437 0.419294 1.61014 0.407499 1.66653 0.407446H2.27583C2.3744 0.406476 2.46995 0.44138 2.54469 0.505652C2.61942 0.569924 2.66824 0.659178 2.68203 0.756779C2.70775 0.951768 2.75544 1.14322 2.8242 1.32749C2.85153 1.40018 2.85744 1.47919 2.84124 1.55514C2.82504 1.63109 2.78741 1.70081 2.73281 1.75603L2.47487 2.01397C2.76399 2.52244 3.185 2.94345 3.69347 3.23257L3.95141 2.97463C4.00663 2.92003 4.07635 2.8824 4.1523 2.8662C4.22825 2.85 4.30726 2.85591 4.37995 2.88324C4.56422 2.952 4.75567 2.99969 4.95066 3.02541C5.04932 3.03933 5.13942 3.08902 5.20383 3.16504C5.26824 3.24106 5.30247 3.3381 5.29999 3.4377Z" stroke="#DD0086" stroke-width="0.28673" stroke-linecap="round" stroke-linejoin="round"/>
</g>
<defs>
<clipPath id="clip0_108_1096">
<rect width="4.87441" height="4.87441" fill="white" transform="translate(0.831772 0.0012207)"/>
</clipPath>
</defs>
</svg>
